<svg width="81" height="81" viewBox="0 0 81 81" fill="none" xmlns="http://www.w3.org/2000/svg">
<path d="M11.1586 41.981H69.1398C69.3512 41.981 69.5539 41.897 69.7033 41.7476C69.8527 41.5981 69.9367 41.3954 69.9367 41.1841V5.38721C69.9367 5.17586 69.8527 4.97317 69.7033 4.82373C69.5539 4.67429 69.3512 4.59033 69.1398 4.59033H11.1586C10.9472 4.59033 10.7445 4.67429 10.5951 4.82373C10.4456 4.97317 10.3617 5.17586 10.3617 5.38721V41.1841C10.3617 41.3954 10.4456 41.5981 10.5951 41.7476C10.7445 41.897 10.9472 41.981 11.1586 41.981ZM29.7898 40.3872C29.8831 37.702 31.0154 35.1579 32.948 33.2913C34.8805 31.4248 37.4624 30.3815 40.1492 30.3815C42.836 30.3815 45.4179 31.4248 47.3504 33.2913C49.283 35.1579 50.4153 37.702 50.5086 40.3872H29.7898ZM11.9554 6.18408H68.343V40.3872H52.1054C52.0224 37.9103 51.1736 35.52 49.6761 33.5453C48.1785 31.5707 46.1057 30.1087 43.7429 29.3606C44.9864 28.5799 45.9422 27.416 46.4661 26.0444C46.9901 24.6728 47.0538 23.1681 46.6475 21.7572C46.2413 20.3463 45.3872 19.1057 44.2142 18.2228C43.0411 17.3398 41.6127 16.8623 40.1445 16.8623C38.6763 16.8623 37.2479 17.3398 36.0748 18.2228C34.9018 19.1057 34.0477 20.3463 33.6415 21.7572C33.2353 23.1681 33.2989 24.6728 33.8229 26.0444C34.3468 27.416 35.3026 28.5799 36.5461 29.3606C34.1842 30.1095 32.1124 31.5718 30.6157 33.5464C29.1191 35.521 28.271 37.9109 28.1883 40.3872H11.9554V6.18408ZM40.1492 28.8075C39.126 28.8075 38.1258 28.5041 37.275 27.9356C36.4242 27.3672 35.7611 26.5592 35.3696 25.6139C34.978 24.6685 34.8755 23.6283 35.0752 22.6248C35.2748 21.6212 35.7675 20.6994 36.491 19.9759C37.2145 19.2524 38.1364 18.7597 39.1399 18.56C40.1435 18.3604 41.1837 18.4629 42.129 18.8544C43.0743 19.246 43.8823 19.9091 44.4508 20.7599C45.0192 21.6106 45.3226 22.6109 45.3226 23.6341C45.321 25.0057 44.7754 26.3206 43.8055 27.2904C42.8357 28.2603 41.5208 28.8059 40.1492 28.8075Z" fill="black" stroke="black"/>
<path d="M66.4117 64.0482C67.6747 63.2612 68.6471 62.0842 69.1817 60.6954C69.7164 59.3065 69.7841 57.7813 69.3748 56.3505C68.9655 54.9197 68.1014 53.6612 66.9132 52.7652C65.7249 51.8692 64.2772 51.3845 62.789 51.3845C61.3008 51.3845 59.8531 51.8692 58.6649 52.7652C57.4766 53.6612 56.6125 54.9197 56.2032 56.3505C55.7939 57.7813 55.8617 59.3065 56.3963 60.6954C56.9309 62.0842 57.9033 63.2612 59.1664 64.0482C57.4215 64.5996 55.8234 65.5372 54.4909 66.7913C53.1583 68.0454 52.1256 69.5837 51.4695 71.292C50.8126 69.5842 49.7796 68.0463 48.4472 66.7923C47.1147 65.5383 45.517 64.6004 43.7726 64.0482C45.035 63.2611 46.0068 62.0843 46.5409 60.6958C47.0751 59.3073 47.1426 57.7826 46.7332 56.3524C46.3239 54.9221 45.4599 53.6641 44.272 52.7685C43.0841 51.8728 41.6369 51.3884 40.1492 51.3884C38.6615 51.3884 37.2142 51.8728 36.0263 52.7685C34.8384 53.6641 33.9745 54.9221 33.5651 56.3524C33.1557 57.7826 33.2232 59.3073 33.7574 60.6958C34.2916 62.0843 35.2633 63.2611 36.5257 64.0482C34.7813 64.6004 33.1836 65.5383 31.8512 66.7923C30.5187 68.0463 29.4858 69.5842 28.8289 71.292C28.1727 69.5837 27.14 68.0454 25.8075 66.7913C24.4749 65.5372 22.8768 64.5996 21.132 64.0482C22.395 63.2612 23.3674 62.0842 23.902 60.6954C24.4367 59.3065 24.5045 57.7813 24.0951 56.3505C23.6858 54.9197 22.8217 53.6612 21.6335 52.7652C20.4452 51.8692 18.9975 51.3845 17.5093 51.3845C16.0211 51.3845 14.5734 51.8692 13.3852 52.7652C12.1969 53.6612 11.3328 54.9197 10.9235 56.3505C10.5142 57.7813 10.582 59.3065 11.1166 60.6954C11.6512 62.0842 12.6236 63.2612 13.8867 64.0482C11.4259 64.8227 9.27585 66.3611 7.74855 68.4402C6.22125 70.5193 5.39613 73.0309 5.39291 75.6107C5.39291 75.822 5.47687 76.0247 5.62631 76.1742C5.77576 76.3236 5.97844 76.4076 6.18979 76.4076C6.40113 76.4076 6.60382 76.3236 6.75326 76.1742C6.90271 76.0247 6.98666 75.822 6.98666 75.6107C6.96969 74.2181 7.22933 72.8359 7.75053 71.5443C8.27173 70.2528 9.04413 69.0776 10.0229 68.0868C11.0017 67.0959 12.1675 66.3093 13.4526 65.7724C14.7377 65.2355 16.1166 64.959 17.5093 64.959C18.9021 64.959 20.281 65.2355 21.5661 65.7724C22.8512 66.3093 24.0169 67.0959 24.9957 68.0868C25.9745 69.0776 26.7469 70.2528 27.2681 71.5443C27.7893 72.8359 28.0489 74.2181 28.032 75.6107C28.032 75.822 28.1159 76.0247 28.2654 76.1742C28.4148 76.3236 28.6175 76.4076 28.8289 76.4076C29.0402 76.4076 29.2429 76.3236 29.3923 76.1742C29.5418 76.0247 29.6257 75.822 29.6257 75.6107C29.6257 72.8197 30.7344 70.143 32.708 68.1695C34.6815 66.196 37.3582 65.0873 40.1492 65.0873C42.9402 65.0873 45.6168 66.196 47.5904 68.1695C49.5639 70.143 50.6726 72.8197 50.6726 75.6107C50.6726 75.822 50.7566 76.0247 50.906 76.1742C51.0554 76.3236 51.2581 76.4076 51.4695 76.4076C51.6808 76.4076 51.8835 76.3236 52.033 76.1742C52.1824 76.0247 52.2664 75.822 52.2664 75.6107C52.2494 74.2181 52.509 72.8359 53.0302 71.5443C53.5514 70.2528 54.3238 69.0776 55.3026 68.0868C56.2814 67.0959 57.4472 66.3093 58.7323 65.7724C60.0174 65.2355 61.3963 64.959 62.789 64.959C64.1818 64.959 65.5607 65.2355 66.8458 65.7724C68.1309 66.3093 69.2966 67.0959 70.2754 68.0868C71.2542 69.0776 72.0266 70.2528 72.5478 71.5443C73.069 72.8359 73.3286 74.2181 73.3117 75.6107C73.3117 75.822 73.3956 76.0247 73.5451 76.1742C73.6945 76.3236 73.8972 76.4076 74.1085 76.4076C74.3199 76.4076 74.5226 76.3236 74.672 76.1742C74.8215 76.0247 74.9054 75.822 74.9054 75.6107C74.9022 73.0309 74.0771 70.5193 72.5498 68.4402C71.0225 66.3611 68.8725 64.8227 66.4117 64.0482ZM12.2539 58.2388C12.2539 57.1992 12.5621 56.183 13.1397 55.3186C13.7173 54.4542 14.5382 53.7805 15.4986 53.3827C16.4591 52.9849 17.5159 52.8808 18.5355 53.0836C19.5552 53.2864 20.4917 53.787 21.2268 54.5221C21.9619 55.2572 22.4625 56.1938 22.6654 57.2134C22.8682 58.233 22.7641 59.2899 22.3662 60.2503C21.9684 61.2108 21.2947 62.0317 20.4303 62.6092C19.5659 63.1868 18.5497 63.4951 17.5101 63.4951C16.1164 63.4938 14.7802 62.9397 13.7947 61.9542C12.8093 60.9687 12.2551 59.6325 12.2539 58.2388ZM34.8945 58.2388C34.8948 57.1996 35.2032 56.1838 35.7808 55.3199C36.3584 54.456 37.1792 53.7827 38.1394 53.3852C39.0996 52.9878 40.1561 52.8839 41.1753 53.0869C42.1945 53.2898 43.1306 53.7904 43.8653 54.5253C44.6001 55.2603 45.1004 56.1966 45.303 57.2158C45.5056 58.2351 45.4015 59.2916 45.0037 60.2516C44.606 61.2117 43.9324 62.0323 43.0684 62.6096C42.2043 63.1869 41.1884 63.4951 40.1492 63.4951C38.7558 63.4934 37.4199 62.9391 36.4348 61.9536C35.4497 60.9682 34.8957 59.6322 34.8945 58.2388ZM57.5335 58.2388C57.5335 57.1992 57.8418 56.183 58.4194 55.3186C58.9969 54.4542 59.8179 53.7805 60.7783 53.3827C61.7388 52.9849 62.7956 52.8808 63.8152 53.0836C64.8349 53.2864 65.7714 53.787 66.5065 54.5221C67.2416 55.2572 67.7422 56.1938 67.945 57.2134C68.1479 58.233 68.0438 59.2899 67.6459 60.2503C67.2481 61.2108 66.5744 62.0317 65.71 62.6092C64.8456 63.1868 63.8294 63.4951 62.7898 63.4951C61.3961 63.4938 60.0599 62.9397 59.0744 61.9542C58.089 60.9687 57.5348 59.6325 57.5335 58.2388Z" fill="black" stroke="black"/>
</svg>
