<svg width="80" height="81" viewBox="0 0 80 81" fill="none" xmlns="http://www.w3.org/2000/svg">
<path d="M77.5 24.04C77.5 17.2705 69.6046 11.7649 59.8978 11.7649C56.8778 11.7521 53.8907 12.3077 51.1429 13.3932H9.70498C7.79489 13.3954 5.96377 14.0538 4.61314 15.2238C3.2625 16.3939 2.50258 17.9802 2.5 19.6349V54.4633C2.50215 56.1181 3.26193 57.7046 4.61266 58.8748C5.96339 60.0449 7.79476 60.7031 9.70498 60.705H31.0437V67.7996H25.0328C24.8131 67.7996 24.6023 67.8752 24.447 68.0098C24.2916 68.1444 24.2043 68.327 24.2043 68.5173C24.2043 68.7077 24.2916 68.8903 24.447 69.0249C24.6023 69.1595 24.8131 69.2351 25.0328 69.2351H48.914C49.1338 69.2351 49.3445 69.1595 49.4999 69.0249C49.6553 68.8903 49.7426 68.7077 49.7426 68.5173C49.7426 68.327 49.6553 68.1444 49.4999 68.0098C49.3445 67.8752 49.1338 67.7996 48.914 67.7996H42.9031V60.705H64.2402C66.1505 60.7031 67.9818 60.0449 69.3326 58.8748C70.6833 57.7046 71.4431 56.1181 71.4452 54.4633V33.2963C75.1525 31.0445 77.5 27.7301 77.5 24.04ZM41.2444 67.7996H32.7008V60.705H41.2444V67.7996ZM64.2402 59.2765H9.70498C8.23411 59.275 6.82397 58.7682 5.78391 57.8672C4.74385 56.9661 4.15878 55.7445 4.15706 54.4703V52.5999H69.7898V54.4591C69.7894 55.7343 69.2046 56.9572 68.1641 57.8591C67.1235 58.7611 65.7122 59.2683 64.2402 59.2695V59.2765ZM18.4663 36.2462C17.4506 36.2465 16.4576 35.9858 15.6128 35.4971C14.7681 35.0085 14.1097 34.3138 13.7208 33.5009C13.3318 32.688 13.2299 31.7935 13.4279 30.9304C13.6258 30.0674 14.1148 29.2746 14.8329 28.6522C15.551 28.0299 16.466 27.6061 17.4622 27.4343C18.4584 27.2626 19.491 27.3506 20.4295 27.6873C21.3679 28.0239 22.17 28.5941 22.7344 29.3257C23.2987 30.0574 23.5999 30.9175 23.5999 31.7975C23.5987 32.9768 23.0574 34.1074 22.095 34.9415C21.1326 35.7755 19.8276 36.2447 18.4663 36.2462ZM20.1948 37.6817C21.4981 37.6787 22.7892 37.8981 23.9945 38.3275C25.1998 38.7568 26.2957 39.3877 27.2195 40.184L31.973 44.2654C32.0541 44.3362 32.1517 44.3913 32.2592 44.427C32.3668 44.4627 32.4819 44.4781 32.5968 44.4723C32.7115 44.4674 32.8238 44.4418 32.9264 44.3972C33.0291 44.3526 33.1199 44.29 33.193 44.2133L38.3754 38.7851C38.6009 38.5526 38.921 38.4042 39.2693 38.3704C39.6176 38.3366 39.9677 38.4201 40.2469 38.6035C40.3964 38.6967 40.5223 38.8153 40.617 38.9522C40.7117 39.089 40.7732 39.2411 40.7976 39.3992C40.8221 39.5573 40.8091 39.718 40.7594 39.8716C40.7097 40.0252 40.6243 40.1684 40.5085 40.2924L33.5358 47.7712C33.4122 47.9036 33.2582 48.0123 33.0835 48.0905C32.9089 48.1688 32.7174 48.2147 32.5213 48.2256C32.3251 48.2364 32.1284 48.2119 31.9437 48.1536C31.759 48.0952 31.5903 48.0043 31.4483 47.8866L26.6785 43.9319C26.5615 43.8343 26.414 43.7688 26.2542 43.7434C26.0945 43.718 25.9297 43.7339 25.7804 43.7891C25.631 43.8444 25.5038 43.9365 25.4144 44.054C25.3251 44.1714 25.2777 44.3091 25.2781 44.4498V51.1686H10.4685V42.889C10.4711 41.5086 11.1052 40.1854 12.2319 39.2094C13.3586 38.2333 14.886 37.6839 16.4794 37.6817H20.1948ZM69.7882 51.1686H26.9287V46.126L30.2964 48.9196C30.6042 49.1749 30.9698 49.372 31.37 49.4984C31.7703 49.6249 32.1965 49.678 32.6217 49.6543C33.0469 49.6306 33.4618 49.5307 33.84 49.3608C34.2183 49.191 34.5518 48.955 34.8192 48.6677L41.787 41.2002C42.2941 40.6603 42.5332 39.9681 42.4518 39.2757C42.3704 38.5832 41.9752 37.947 41.353 37.5067C40.7307 37.0665 39.9322 36.8581 39.1327 36.9273C38.3333 36.9965 37.5982 37.3377 37.0888 37.8759L32.4945 42.6863L28.3859 39.1679C26.7984 37.8026 24.7886 36.8646 22.5992 36.4671C23.7268 35.7173 24.5542 34.6797 24.9647 33.5007C25.3753 32.3217 25.3484 31.0609 24.8877 29.8959C24.427 28.7309 23.5559 27.7206 22.3971 27.0073C21.2382 26.2941 19.8502 25.914 18.4288 25.9206C17.0073 25.9272 15.624 26.3201 14.4741 27.044C13.3241 27.7679 12.4655 28.7863 12.0192 29.9554C11.5729 31.1246 11.5615 32.3857 11.9866 33.5608C12.4117 34.7359 13.2519 35.7657 14.3886 36.5051C12.7847 36.9004 11.3729 37.737 10.3662 38.8887C9.35947 40.0403 8.81263 41.4444 8.80821 42.889V51.1672H4.15706V19.6349C4.15878 18.3607 4.74385 17.1391 5.78391 16.2381C6.82397 15.3371 8.23411 14.8302 9.70498 14.8287H48.2853C44.6219 17.0805 42.3053 20.3752 42.3053 24.04C42.3063 25.6975 42.7753 27.3297 43.6715 28.7941L39.7872 33.8607C39.6995 33.9748 39.6514 34.1083 39.6485 34.2454C39.6456 34.3825 39.6882 34.5175 39.771 34.6343C39.8539 34.7511 39.9737 34.8449 40.1162 34.9046C40.2587 34.9643 40.4179 34.9874 40.5751 34.9711L49.6451 34.0225C52.644 35.5228 56.1824 36.3151 59.8978 36.3151C63.3482 36.3355 66.7491 35.6042 69.7882 34.1886V51.1686ZM59.8978 34.8796C56.3806 34.8796 53.0437 34.114 50.2494 32.6644C50.1204 32.5985 49.9735 32.5635 49.8238 32.5631C49.7908 32.5616 49.7577 32.5616 49.7247 32.5631L42.1526 33.3526L45.3205 29.2234C45.4051 29.1121 45.4525 28.9827 45.4574 28.8496C45.4623 28.7164 45.4244 28.5847 45.3481 28.469C44.4399 27.1238 43.9589 25.5942 43.9542 24.0358C43.9542 18.0587 51.1023 13.199 59.8978 13.199C68.6932 13.199 75.8429 18.0615 75.8429 24.0358C75.8429 30.0101 68.6899 34.8796 59.8978 34.8796Z" fill="black" stroke="black"/>
<path d="M49.386 21.2605C49.1746 21.2605 48.9719 21.3332 48.8225 21.4627C48.6731 21.5922 48.5891 21.7677 48.5891 21.9508V25.1859C48.5891 25.369 48.6731 25.5446 48.8225 25.674C48.9719 25.8035 49.1746 25.8762 49.386 25.8762C49.5973 25.8762 49.8 25.8035 49.9494 25.674C50.0989 25.5446 50.1828 25.369 50.1828 25.1859V21.9562C50.1837 21.8651 50.1637 21.7748 50.124 21.6904C50.0843 21.606 50.0257 21.5293 49.9517 21.4646C49.8776 21.3999 49.7895 21.3486 49.6924 21.3136C49.5953 21.2785 49.4911 21.2605 49.386 21.2605Z" fill="black" stroke="black"/>
<path d="M57.7047 21.2605C57.4934 21.2605 57.2907 21.3332 57.1412 21.4627C56.9918 21.5922 56.9078 21.7677 56.9078 21.9508V25.1859C56.9078 25.369 56.9918 25.5446 57.1412 25.674C57.2907 25.8035 57.4934 25.8762 57.7047 25.8762C57.916 25.8762 58.1187 25.8035 58.2682 25.674C58.4176 25.5446 58.5016 25.369 58.5016 25.1859V21.9562C58.5024 21.8651 58.4824 21.7748 58.4427 21.6904C58.403 21.606 58.3445 21.5293 58.2704 21.4646C58.1963 21.3999 58.1082 21.3486 58.0111 21.3136C57.914 21.2785 57.8099 21.2605 57.7047 21.2605Z" fill="black" stroke="black"/>
<path d="M66.025 21.2605C65.9204 21.2605 65.8168 21.2784 65.7201 21.313C65.6234 21.3477 65.5356 21.3986 65.4616 21.4627C65.3876 21.5268 65.3289 21.6029 65.2888 21.6866C65.2488 21.7704 65.2281 21.8602 65.2281 21.9508V25.1859C65.2281 25.369 65.3121 25.5446 65.4616 25.674C65.611 25.8035 65.8137 25.8762 66.025 25.8762C66.2364 25.8762 66.4391 25.8035 66.5885 25.674C66.738 25.5446 66.8219 25.369 66.8219 25.1859V21.9562C66.8228 21.8651 66.8028 21.7748 66.7631 21.6904C66.7234 21.606 66.6648 21.5293 66.5908 21.4646C66.5167 21.3999 66.4285 21.3486 66.3315 21.3136C66.2344 21.2785 66.1302 21.2605 66.025 21.2605Z" fill="black" stroke="black"/>
</svg>
