<svg width="81" height="81" viewBox="0 0 81 81" fill="none" xmlns="http://www.w3.org/2000/svg">
<g clip-path="url(#clip0)">
<path d="M76.4011 44.592H74.9814V36.4918C74.9814 17.3826 59.4351 1.83618 40.3259 1.83618C21.2167 1.83618 5.67046 17.3826 5.67046 36.4918V44.592H4.25077C2.08655 44.592 0.325928 46.3526 0.325928 48.5168V64.5502C0.325928 66.7145 2.08655 68.4751 4.25077 68.4751H5.87655C6.40061 70.0266 7.86905 71.1473 9.5953 71.1473H12.2675C14.4317 71.1473 16.1923 69.3867 16.1923 67.2224V45.8446C16.1923 43.6804 14.4317 41.9198 12.2675 41.9198H9.5953C9.09483 41.9198 8.61624 42.0149 8.17562 42.1865V36.4918C8.17562 18.764 22.5981 4.34149 40.3259 4.34149C58.0537 4.34149 72.4762 18.764 72.4762 36.4918V42.1865C72.0356 42.0149 71.5572 41.9198 71.0565 41.9198H68.3844C66.2201 41.9198 64.4595 43.6804 64.4595 45.8446V67.2224C64.4595 69.3867 66.2201 71.1473 68.3844 71.1473H71.0565C72.7828 71.1473 74.2512 70.0266 74.7753 68.4751H76.4011C78.5653 68.4751 80.3259 66.7145 80.3259 64.5502V48.5168C80.3259 46.3526 78.5653 44.592 76.4011 44.592ZM5.67046 65.9698H4.25077C3.46796 65.9698 2.83108 65.3329 2.83108 64.5501V48.5168C2.83108 47.7338 3.46796 47.0971 4.25077 47.0971H5.67046V65.9698ZM9.5953 44.4249H12.2675C13.0503 44.4249 13.6872 45.0618 13.6872 45.8446V67.2224C13.6872 68.0052 13.0503 68.6421 12.2675 68.6421H9.5953C8.81249 68.6421 8.17562 68.0052 8.17562 67.2224V45.8446C8.17562 45.0618 8.81249 44.4249 9.5953 44.4249ZM72.4762 67.2224C72.4762 68.0052 71.8394 68.6421 71.0565 68.6421H68.3844C67.6016 68.6421 66.9647 68.0052 66.9647 67.2224V45.8446C66.9647 45.0616 67.6016 44.4249 68.3844 44.4249H71.0565C71.8394 44.4249 72.4762 45.0618 72.4762 45.8446V67.2224ZM77.8208 64.5502C77.8208 65.3331 77.1839 65.9699 76.4011 65.9699H74.9814V47.0971H76.4011C77.1839 47.0971 77.8208 47.734 77.8208 48.5168V64.5502Z" fill="black"/>
<path d="M55.0233 33.903H53.2787C52.8367 33.1072 51.9881 32.5669 51.0148 32.5669H45.6703C44.6972 32.5669 43.8486 33.1072 43.4064 33.903H25.6286C23.4644 33.903 21.7037 35.6636 21.7037 37.8278V75.2391C21.7037 77.4033 23.4644 79.1639 25.6286 79.1639H55.0231C57.1873 79.1639 58.948 77.4033 58.948 75.2391V37.8278C58.9481 35.6636 57.1873 33.903 55.0233 33.903ZM45.5869 35.1555C45.5869 35.1096 45.6242 35.0721 45.6703 35.0721H51.0148C51.0609 35.0721 51.0983 35.1096 51.0983 35.1555V43.5039L49.0373 42.1299C48.8269 41.9896 48.5847 41.9194 48.3425 41.9194C48.1003 41.9194 47.8581 41.9896 47.6476 42.1299L45.5867 43.5039V35.1555H45.5869ZM56.443 75.2391H56.4428C56.4428 76.0219 55.8059 76.6588 55.0231 76.6588H25.6286C24.8458 76.6588 24.2089 76.0219 24.2089 75.2391V37.8278C24.2089 37.045 24.8458 36.4081 25.6286 36.4081H43.0815V45.8444C43.0815 46.3064 43.3358 46.731 43.7431 46.9488C44.1505 47.1669 44.6445 47.1428 45.0289 46.8866L48.3425 44.6775L51.6561 46.8866C51.8656 47.0264 52.108 47.0971 52.3511 47.0971C52.5537 47.0971 52.7569 47.048 52.9422 46.9488C53.3494 46.7308 53.6037 46.3063 53.6037 45.8444V36.4081H55.0234C55.8062 36.4081 56.4431 37.045 56.4431 37.8278V75.2391H56.443Z" fill="black"/>
<path d="M28.301 39.2473C27.6093 39.2473 27.0483 39.8081 27.0483 40.5V72.5668C27.0483 73.2586 27.6091 73.8195 28.301 73.8195C28.9929 73.8195 29.5537 73.2587 29.5537 72.5668V40.5C29.5535 39.8083 28.9927 39.2473 28.301 39.2473Z" fill="black"/>
<path d="M47.0066 52.6086H38.9898C38.2981 52.6086 37.7372 53.1694 37.7372 53.8613C37.7372 54.5532 38.298 55.114 38.9898 55.114H47.0066C47.6983 55.114 48.2592 54.5532 48.2592 53.8613C48.2592 53.1694 47.6983 52.6086 47.0066 52.6086Z" fill="black"/>
<path d="M49.6788 57.9529H36.3177C35.626 57.9529 35.0651 58.5137 35.0651 59.2055C35.0651 59.8973 35.6258 60.4582 36.3177 60.4582H49.6788C50.3705 60.4582 50.9315 59.8974 50.9315 59.2055C50.9315 58.5138 50.3705 57.9529 49.6788 57.9529Z" fill="black"/>
</g>
<defs>
<clipPath id="clip0">
<rect width="80" height="80" fill="white" transform="translate(0.325928 0.5)"/>
</clipPath>
</defs>
</svg>
