<svg width="80" height="81" viewBox="0 0 80 81" fill="none" xmlns="http://www.w3.org/2000/svg">
<path d="M78.75 34.0056V10.1822C78.75 8.39115 77.0675 6.93359 75 6.93359H27.5C25.4325 6.93359 23.75 8.39115 23.75 10.1822V15.6345C23.3162 15.6096 22.905 15.5966 22.5 15.5966C10.7825 15.5966 1.25 23.8547 1.25 34.0056C1.25 42.6622 8.19125 49.9229 17.5 51.8786V55.6633C17.5 56.2448 17.6912 56.783 18.0012 57.2562C16.9525 57.8323 16.25 58.8415 16.25 59.9948V68.6579C16.25 71.6434 19.0537 74.0723 22.5 74.0723C25.9463 74.0723 28.75 71.6434 28.75 68.6579V59.9948C28.75 58.8415 28.0475 57.8323 26.9988 57.2562C27.3088 56.783 27.5 56.2448 27.5 55.6633V51.8786C32.5675 50.8109 36.9575 48.1665 39.8913 44.5378L40.8175 46.0971C40.365 46.8649 39.98 47.6727 39.6688 48.5108L36.25 49.4594V57.5367L39.6675 58.4853C39.9787 59.3245 40.3638 60.1323 40.8162 60.899L39.1763 63.6593L45.7688 69.3704L48.955 67.9497C49.8413 68.3417 50.7738 68.6752 51.7413 68.9448L52.8387 71.9065H62.1625L63.2575 68.9459C64.225 68.6763 65.1587 68.3427 66.0437 67.9507L69.23 69.3715L75.8213 63.6604L74.1825 60.9001C74.635 60.1334 75.02 59.3245 75.3313 58.4863L78.75 57.5356V49.4584L75.3325 48.5098C75.0212 47.6727 74.6363 46.8627 74.1837 46.096L75.8225 43.3358L69.2312 37.6246L66.045 39.0454C65.1575 38.6523 64.225 38.3198 63.2587 38.0502L62.9625 37.2543H75C77.0675 37.2543 78.75 35.7967 78.75 34.0056ZM27.5 37.2543H35.7075C34.0575 42.3427 28.7262 45.9173 22.5 45.9173C14.9187 45.9173 8.75 40.5733 8.75 34.0056C8.75 27.438 14.9187 22.0939 22.5 22.0939C22.9 22.0939 23.3175 22.1178 23.75 22.1557V34.0056C23.75 35.7967 25.4325 37.2543 27.5 37.2543ZM26.25 68.6579C26.25 70.4489 24.5675 71.9065 22.5 71.9065C20.4325 71.9065 18.75 70.4489 18.75 68.6579V59.9948C18.75 59.3971 19.31 58.9119 20 58.9119H21.25H23.75H25C25.69 58.9119 26.25 59.3971 26.25 59.9948V68.6579ZM25 55.6633C25 56.261 24.44 56.7462 23.75 56.7462H21.25C20.56 56.7462 20 56.261 20 55.6633V52.276C20.8213 52.3594 21.6525 52.4146 22.5 52.4146C23.3463 52.4146 24.1775 52.3562 25 52.2717V55.6633ZM22.5 50.2489C12.1613 50.2489 3.75 42.9622 3.75 34.0056C3.75 25.0491 12.1613 17.7624 22.5 17.7624C22.8962 17.7624 23.3125 17.7797 23.75 17.809V19.9769C23.3225 19.9466 22.9062 19.9282 22.5 19.9282C13.54 19.9282 6.25 26.2435 6.25 34.0056C6.25 41.7677 13.54 48.0831 22.5 48.0831C30.0963 48.0831 36.5662 43.5794 38.285 37.2543H40.8438C39.09 44.7413 31.4475 50.2489 22.5 50.2489ZM43.3775 37.2543H52.0363L51.7425 38.0491C50.7763 38.3188 49.8425 38.6512 48.9563 39.0443L45.77 37.6235L42.2875 40.6405C42.7713 39.5597 43.1362 38.4281 43.3775 37.2543ZM61.28 39.8056L61.9263 39.9637C63.1613 40.2658 64.3375 40.6859 65.4225 41.2122L66.0075 41.4959L68.7513 40.2734L72.765 43.7505L71.3538 46.1263L71.6813 46.6342C72.2887 47.5731 72.7738 48.5931 73.1225 49.663L73.305 50.2229L76.25 51.0383V55.9557L73.305 56.7721L73.1225 57.332C72.7725 58.404 72.2875 59.423 71.6825 60.3608L71.3538 60.8676L72.765 63.2445L68.7513 66.7227L66.0088 65.4991L65.4225 65.7828C64.3388 66.308 63.1625 66.7292 61.9263 67.0325L61.28 67.1906L60.3387 69.7407H54.6625L53.72 67.1895L53.0737 67.0314C51.8363 66.7282 50.66 66.308 49.5775 65.7839L48.9925 65.4991L46.2487 66.7227L42.2337 63.2445L43.6462 60.8676L43.3175 60.3608C42.7125 59.4241 42.2275 58.4051 41.8763 57.332L41.6937 56.7721L38.75 55.9567V51.0394L41.695 50.2229L41.8775 49.663C42.2275 48.591 42.7125 47.572 43.3175 46.6342L43.6462 46.1274L42.2337 43.7505L46.2487 40.2734L48.9925 41.4959L49.5775 41.2122C50.6625 40.6859 51.8387 40.2647 53.0737 39.9637L53.72 39.8056L54.6613 37.2543H60.3375L61.28 39.8056ZM52.8387 35.0885H27.5C26.81 35.0885 26.25 34.6023 26.25 34.0056V10.1822C26.25 9.58557 26.81 9.09936 27.5 9.09936H75C75.69 9.09936 76.25 9.58557 76.25 10.1822V34.0056C76.25 34.6023 75.69 35.0885 75 35.0885H62.1613H52.8387Z" fill="black"/>
<path d="M67.5 11.2651C64.0537 11.2651 61.25 13.694 61.25 16.6796C61.25 17.286 61.3925 17.8599 61.605 18.4046L56.0475 21.2136C55.1413 20.4209 53.8862 19.9282 52.5 19.9282C51.295 19.9282 50.2038 20.3137 49.34 20.931L43.3913 17.1831C43.6163 16.6904 43.75 16.1576 43.75 15.5967C43.75 13.2078 41.5075 11.2651 38.75 11.2651C35.9925 11.2651 33.75 13.2078 33.75 15.5967C33.75 17.0467 34.5838 18.3256 35.85 19.1117L32.5988 26.4342C32.565 26.4331 32.5338 26.4255 32.5 26.4255C30.4325 26.4255 28.75 27.8831 28.75 29.6742C28.75 31.4653 30.4325 32.9229 32.5 32.9229C34.5675 32.9229 36.25 31.4653 36.25 29.6742C36.25 28.6888 35.7313 27.816 34.9288 27.2193L38.1888 19.8784C38.375 19.8979 38.5575 19.9282 38.75 19.9282C39.955 19.9282 41.045 19.5427 41.91 18.9255L47.8587 22.6733C47.6337 23.1661 47.5 23.6988 47.5 24.2598C47.5 26.6486 49.7425 28.5913 52.5 28.5913C55.2575 28.5913 57.5 26.6486 57.5 24.2598C57.5 23.8526 57.4137 23.466 57.2925 23.0913L62.8638 20.2758C64.0088 21.3825 65.6538 22.094 67.5 22.094C70.9463 22.094 73.75 19.6651 73.75 16.6796C73.75 13.694 70.9463 11.2651 67.5 11.2651ZM32.5 30.7571C31.81 30.7571 31.25 30.2709 31.25 29.6742C31.25 29.0775 31.81 28.5913 32.5 28.5913C33.19 28.5913 33.75 29.0775 33.75 29.6742C33.75 30.2709 33.19 30.7571 32.5 30.7571ZM38.75 17.7625C37.3713 17.7625 36.25 16.7911 36.25 15.5967C36.25 14.4023 37.3713 13.4309 38.75 13.4309C40.1287 13.4309 41.25 14.4023 41.25 15.5967C41.25 16.7911 40.1287 17.7625 38.75 17.7625ZM52.5 26.4255C51.1213 26.4255 50 25.4542 50 24.2598C50 23.0653 51.1213 22.094 52.5 22.094C53.8787 22.094 55 23.0653 55 24.2598C55 25.4542 53.8787 26.4255 52.5 26.4255ZM67.5 19.9282C65.4325 19.9282 63.75 18.4707 63.75 16.6796C63.75 14.8885 65.4325 13.4309 67.5 13.4309C69.5675 13.4309 71.25 14.8885 71.25 16.6796C71.25 18.4707 69.5675 19.9282 67.5 19.9282Z" fill="black"/>
<path d="M61.25 30.7571H63.75V32.9229H61.25V30.7571Z" fill="black"/>
<path d="M66.25 30.7571H68.75V32.9229H66.25V30.7571Z" fill="black"/>
<path d="M71.25 30.7571H73.75V32.9229H71.25V30.7571Z" fill="black"/>
<path d="M61.25 26.4255H73.75V28.5913H61.25V26.4255Z" fill="black"/>
<path d="M13.75 34.0056H11.25C11.25 39.379 16.2963 43.7517 22.5 43.7517V41.5859C17.6762 41.5859 13.75 38.1856 13.75 34.0056Z" fill="black"/>
<path d="M66.25 53.4976H63.75C63.75 56.483 60.9462 58.9119 57.5 58.9119V61.0776C62.3238 61.0776 66.25 57.6763 66.25 53.4976Z" fill="black"/>
<path d="M43.75 53.4976C43.75 60.0652 49.9187 65.4092 57.5 65.4092C65.0812 65.4092 71.25 60.0652 71.25 53.4976C71.25 46.9299 65.0812 41.5859 57.5 41.5859C49.9187 41.5859 43.75 46.9299 43.75 53.4976ZM57.5 43.7517C63.7038 43.7517 68.75 48.1233 68.75 53.4976C68.75 58.8719 63.7038 63.2434 57.5 63.2434C51.2963 63.2434 46.25 58.8719 46.25 53.4976C46.25 48.1233 51.2963 43.7517 57.5 43.7517Z" fill="black"/>
</svg>
