<svg width="81" height="81" viewBox="0 0 81 81" fill="none" xmlns="http://www.w3.org/2000/svg">
<path d="M35.9664 55.1908L36.0876 54.5916H35.4763H6.79743C4.86079 54.5916 3.4104 53.2397 3.4104 51.7238V12.8727C3.4104 11.3568 4.86079 10.0049 6.79743 10.0049H74.0222C75.9601 10.0049 77.4104 11.3568 77.4104 12.8727V51.7238C77.4104 53.2397 75.9601 54.5916 74.0222 54.5916H45.3452H44.7328L44.8553 55.1916L45.4558 58.1348C46.0622 61.107 48.1335 63.653 51.0962 65.1409L51.4432 65.3152C51.4433 65.3152 51.4433 65.3152 51.4434 65.3153C51.5267 65.3572 51.5578 65.3954 51.5716 65.4171C51.5874 65.4417 51.6013 65.4775 51.6086 65.538C51.6165 65.6034 51.6147 65.6762 51.6097 65.778C51.6093 65.7854 51.6088 65.7935 51.6084 65.8023C51.6039 65.8832 51.5964 66.0217 51.6157 66.1435L51.6828 66.565H52.1095H56.9193C57.0476 66.565 57.1518 66.6102 57.2182 66.6677C57.2837 66.7244 57.3051 66.784 57.3051 66.8324V70.7333C57.3051 70.7817 57.2837 70.8413 57.2182 70.898C57.1518 70.9556 57.0476 71.0007 56.9193 71.0007H23.9003C23.7721 71.0007 23.6679 70.9556 23.6014 70.898C23.536 70.8413 23.5145 70.7817 23.5145 70.7333V66.8324C23.5145 66.784 23.536 66.7244 23.6014 66.6677C23.6679 66.6102 23.7721 66.565 23.9003 66.565H28.7101H29.2101V66.065V65.5324C29.2101 65.4732 29.2472 65.3797 29.3761 65.3154L29.3768 65.3151L29.7182 65.1442L29.7184 65.1441C32.693 63.6536 34.7692 61.1003 35.3744 58.1167L35.3744 58.1165L35.9664 55.1908ZM56.0335 70.4659H56.5335V69.9659V67.5998V67.0998H56.0335H55.9668H55.9001H55.8335H55.7669H55.7005H55.634H55.5676H55.5013H55.435H55.3688H55.3027H55.2366H55.1705H55.1045H55.0386H54.9727H54.9069H54.8411H54.7753H54.7097H54.6441H54.5785H54.513H54.4475H54.3821H54.3167H54.2514H54.1862H54.121H54.0558H53.9907H53.9256H53.8606H53.7957H53.7308H53.6659H53.6011H53.5364H53.4717H53.407H53.3424H53.2779H53.2133H53.1489H53.0845H53.0201H52.9558H52.8915H52.8273H52.7631H52.699H52.6349H52.5709H52.5069H52.4429H52.379H52.3152H52.2514H52.1876H52.1239H52.0602H51.9966H51.933H51.8695H51.806H51.7425H51.6791H51.6157H51.5524H51.4891H51.4259H51.3627H51.2996H51.2365H51.1734H51.1104H51.0474H50.9844H50.9215H50.8587H50.7958H50.7331H50.6703H50.6076H50.545H50.4823H50.4198H50.3572H50.2947H50.2323H50.1698H50.1074H50.0451H49.9828H49.9205H49.8583H49.7961H49.7339H49.6718H49.6097H49.5477H49.4857H49.4237H49.3617H49.2998H49.238H49.1761H49.1143H49.0526H48.9909H48.9292H48.8675H48.8059H48.7443H48.6827H48.6212H48.5597H48.4983H48.4368H48.3754H48.3141H48.2528H48.1915H48.1302H48.069H48.0078H47.9466H47.8855H47.8244H47.7633H47.7022H47.6412H47.5803H47.5193H47.4584H47.3975H47.3366H47.2758H47.215H47.1542H47.0935H47.0327H46.972H46.9114H46.8507H46.7901H46.7295H46.669H46.6085H46.548H46.4875H46.427H46.3666H46.3062H46.2458H46.1855H46.1252H46.0649H46.0046H45.9444H45.8842H45.824H45.7638H45.7036H45.6435H45.5834H45.5233H45.4633H45.4032H45.3432H45.2833H45.2233H45.1633H45.1034H45.0435H44.9837H44.9238H44.864H44.8041H44.7444H44.6846H44.6248H44.5651H44.5054H44.4457H44.386H44.3264H44.2667H44.2071H44.1475H44.0879H44.0284H43.9688H43.9093H43.8498H43.7903H43.7308H43.6714H43.6119H43.5525H43.4931H43.4337H43.3743H43.315H43.2556H43.1963H43.137H43.0777H43.0184H42.9591H42.8999H42.8406H42.7814H42.7222H42.663H42.6038H42.5446H42.4855H42.4263H42.3672H42.3081H42.249H42.1899H42.1308H42.0717H42.0126H41.9536H41.8945H41.8355H41.7765H41.7175H41.6585H41.5995H41.5405H41.4815H41.4226H41.3636H41.3047H41.2458H41.1868H41.1279H41.069H41.0101H40.9512H40.8923H40.8334H40.7746H40.7157H40.6568H40.598H40.5391H40.4803H40.4215H40.3626H40.3038H40.245H40.1862H40.1274H40.0686H40.0098H39.951H39.8922H39.8334H39.7746H39.7158H39.6571H39.5983H39.5395H39.4807H39.422H39.3632H39.3044H39.2457H39.1869H39.1282H39.0694H39.0107H38.9519H38.8932H38.8344H38.7756H38.7169H38.6581H38.5994H38.5406H38.4819H38.4231H38.3644H38.3056H38.2468H38.1881H38.1293H38.0705H38.0118H37.953H37.8942H37.8354H37.7767H37.7179H37.6591H37.6003H37.5415H37.4827H37.4239H37.3651H37.3063H37.2474H37.1886H37.1298H37.071H37.0121H36.9533H36.8944H36.8355H36.7767H36.7178H36.6589H36.6H36.5411H36.4822H36.4233H36.3644H36.3055H36.2465H36.1876H36.1286H36.0697H36.0107H35.9517H35.8927H35.8337H35.7747H35.7157H35.6566H35.5976H35.5385H35.4795H35.4204H35.3613H35.3022H35.2431H35.1839H35.1248H35.0657H35.0065H34.9473H34.8881H34.8289H34.7697H34.7105H34.6512H34.592H34.5327H34.4734H34.4141H34.3548H34.2954H34.2361H34.1767H34.1174H34.058H33.9985H33.9391H33.8797H33.8202H33.7607H33.7012H33.6417H33.5822H33.5226H33.4631H33.4035H33.3439H33.2842H33.2246H33.1649H33.1053H33.0456H32.9858H32.9261H32.8663H32.8066H32.7468H32.6869H32.6271H32.5672H32.5073H32.4474H32.3875H32.3276H32.2676H32.2076H32.1476H32.0875H32.0275H31.9674H31.9073H31.8471H31.787H31.7268H31.6666H31.6064H31.5461H31.4858H31.4255H31.3652H31.3048H31.2445H31.1841H31.1236H31.0632H31.0027H30.9422H30.8816H30.8211H30.7605H30.6999H30.6392H30.5785H30.5178H30.4571H30.3963H30.3356H30.2747H30.2139H30.153H30.0921H30.0312H29.9702H29.9092H29.8482H29.7871H29.7261H29.6649H29.6038H29.5426H29.4814H29.4202H29.3589H29.2976H29.2362H29.1749H29.1135H29.052H28.9906H28.9291H28.8675H28.806H28.7444H28.6827H28.621H28.5593H28.4976H28.4358H28.374H28.3122H28.2503H28.1884H28.1264H28.0644H28.0024H27.9403H27.8782H27.8161H27.7539H27.6917H27.6295H27.5672H27.5049H27.4425H27.3801H27.3177H27.2552H27.1927H27.1301H27.0675H27.0049H26.9422H26.8795H26.8167H26.7539H26.6911H26.6282H26.5653H26.5024H26.4394H26.3763H26.3132H26.2501H26.1869H26.1237H26.0605H25.9972H25.9338H25.8705H25.807H25.7436H25.6801H25.6165H25.5529H25.4893H25.4256H25.3618H25.298H25.2342H25.1704H25.1064H25.0425H24.9785H24.9144H24.8503H24.7862H24.2862V67.5998V69.9659V70.4659H24.7862H56.0335ZM44.6916 58.2017L44.6916 58.2016L44.0365 54.9916L43.9548 54.5916H43.5466H37.2743H36.8653L36.7842 54.9924L36.1383 58.1829L36.1382 58.183C35.5192 61.2457 33.3918 63.9257 30.2542 65.5293L29.9818 65.6686V65.9746V66.065V66.565H30.4818H50.3379H50.8379V66.065V65.9741V65.6683L50.5657 65.529C47.4382 63.9278 45.3139 61.2549 44.6916 58.2017ZM74.0222 54.0568C75.3958 54.0568 76.6387 53.0756 76.6387 51.7238V12.8727C76.6387 11.5209 75.3958 10.5397 74.0222 10.5397H6.79743C5.42486 10.5397 4.18205 11.521 4.18205 12.8727V51.7238C4.18205 53.0755 5.42486 54.0568 6.79743 54.0568H6.9132H7.02908H7.14508H7.2612H7.37743H7.49377H7.61022H7.72679H7.84347H7.96026H8.07717H8.19418H8.31131H8.42855H8.5459H8.66335H8.78092H8.8986H9.01639H9.13428H9.25229H9.3704H9.48863H9.60695H9.72539H9.84394H9.96259H10.0813H10.2002H10.3192H10.4383H10.5574H10.6767H10.7961H10.9156H11.0352H11.1549H11.2747H11.3946H11.5146H11.6347H11.7549H11.8753H11.9957H12.1162H12.2368H12.3575H12.4784H12.5993H12.7203H12.8414H12.9626H13.0839H13.2054H13.3269H13.4485H13.5702H13.692H13.8139H13.9359H14.058H14.1802H14.3025H14.4248H14.5473H14.6699H14.7925H14.9153H15.0381H15.1611H15.2841H15.4072H15.5305H15.6538H15.7772H15.9007H16.0243H16.1479H16.2717H16.3956H16.5195H16.6435H16.7677H16.8919H17.0162H17.1406H17.265H17.3896H17.5143H17.639H17.7638H17.8887H18.0137H18.1388H18.264H18.3892H18.5146H18.64H18.7655H18.8911H19.0168H19.1425H19.2683H19.3943H19.5203H19.6464H19.7725H19.8988H20.0251H20.1515H20.278H20.4046H20.5312H20.6579H20.7847H20.9116H21.0386H21.1656H21.2927H21.4199H21.5472H21.6745H21.802H21.9295H22.057H22.1847H22.3124H22.4402H22.5681H22.6961H22.8241H22.9522H23.0803H23.2086H23.3369H23.4653H23.5937H23.7223H23.8509H23.9796H24.1083H24.2371H24.366H24.495H24.624H24.7531H24.8822H25.0115H25.1408H25.2701H25.3996H25.5291H25.6586H25.7882H25.9179H26.0477H26.1775H26.3074H26.4374H26.5674H26.6975H26.8277H26.9579H27.0882H27.2185H27.3489H27.4794H27.6099H27.7405H27.8712H28.0019H28.1327H28.2635H28.3944H28.5253H28.6564H28.7874H28.9186H29.0498H29.181H29.3123H29.4437H29.5751H29.7066H29.8381H29.9697H30.1014H30.2331H30.3648H30.4966H30.6285H30.7604H30.8924H31.0244H31.1565H31.2887H31.4209H31.5531H31.6854H31.8177H31.9501H32.0826H32.2151H32.3477H32.4803H32.6129H32.7456H32.8784H33.0112H33.144H33.2769H33.4099H33.5429H33.6759H33.809H33.9421H34.0753H34.2085H34.3418H34.4751H34.6085H34.7419H34.8753H35.0088H35.1424H35.276H35.4096H35.5433H35.677H35.8107H35.9445H36.0784H36.2123H36.3462H36.4802H36.6142H36.7482H36.8823H37.0164H37.1506H37.2848H37.419H37.5533H37.6876H37.822H37.9564H38.0908H38.2253H38.3598H38.4943H38.6289H38.7635H38.8981H39.0328H39.1675H39.3023H39.437H39.5719H39.7067H39.8416H39.9765H40.1115H40.2464H40.3814H40.5165H40.6515H40.7866H40.9218H41.0569H41.1921H41.3274H41.4626H41.5979H41.7332H41.8685H42.0039H42.1393H42.2747H42.4101H42.5456H42.6811H42.8166H42.9522H43.0878H43.2234H43.359H43.4946H43.6303H43.766H43.9017H44.0375H44.1732H44.309H44.4448H44.5806H44.7165H44.8524H44.9883H45.1242H45.2601H45.3961H45.532H45.668H45.804H45.9401H46.0761H46.2122H46.3483H46.4844H46.6205H46.7566H46.8928H47.0289H47.1651H47.3013H47.4375H47.5738H47.71H47.8463H47.9825H48.1188H48.2551H48.3914H48.5278H48.6641H48.8004H48.9368H49.0732H49.2096H49.3459H49.4823H49.6188H49.7552H49.8916H50.0281H50.1645H50.301H50.4374H50.5739H50.7104H50.8469H50.9834H51.1199H51.2564H51.3929H51.5294H51.6659H51.8025H51.939H52.0755H52.2121H52.3486H52.4852H52.6217H52.7583H52.8948H53.0314H53.1679H53.3045H53.4411H53.5776H53.7142H53.8508H53.9873H54.1239H54.2604H54.397H54.5336H54.6701H54.8067H54.9432H55.0798H55.2163H55.3529H55.4894H55.626H55.7625H55.899H56.0356H56.1721H56.3086H56.4451H56.5816H56.7181H56.8546H56.9911H57.1275H57.264H57.4005H57.5369H57.6733H57.8098H57.9462H58.0826H58.219H58.3554H58.4918H58.6282H58.7645H58.9009H59.0372H59.1735H59.3098H59.4461H59.5824H59.7187H59.8549H59.9912H60.1274H60.2636H60.3998H60.536H60.6722H60.8083H60.9445H61.0806H61.2167H61.3528H61.4888H61.6249H61.7609H61.8969H62.0329H62.1689H62.3049H62.4408H62.5767H62.7126H62.8485H62.9843H63.1202H63.256H63.3918H63.5275H63.6633H63.799H63.9347H64.0704H64.206H64.3416H64.4772H64.6128H64.7483H64.8839H65.0194H65.1548H65.2903H65.4257H65.5611H65.6965H65.8318H65.9671H66.1024H66.2376H66.3729H66.5081H66.6432H66.7784H66.9135H67.0485H67.1836H67.3186H67.4536H67.5885H67.7234H67.8583H67.9931H68.128H68.2627H68.3975H68.5322H68.6669H68.8015H68.9361H69.0707H69.2053H69.3398H69.4742H69.6087H69.743H69.8774H70.0117H70.146H70.2803H70.4145H70.5486H70.6827H70.8168H70.9509H71.0849H71.2188H71.3528H71.4867H71.6205H71.7543H71.8881H72.0218H72.1554H72.2891H72.4227H72.5562H72.6897H72.8232H72.9566H73.0899H73.2233H73.3565H73.4898H73.623H73.7561H73.8892H74.0222Z" fill="black" stroke="black"/>
<path d="M71.6358 50.1566H72.1358V49.6566V14.9403V14.4403H71.6358H9.18388H8.68388V14.9403V49.6566V50.1566H9.18388H71.6358ZM8.29806 13.9055H72.5216C72.6499 13.9055 72.7541 13.9507 72.8206 14.0083C72.886 14.065 72.9075 14.1246 72.9075 14.1729V50.424C72.9075 50.4724 72.886 50.532 72.8206 50.5887C72.7541 50.6462 72.6499 50.6914 72.5216 50.6914H8.29806C8.16979 50.6914 8.06559 50.6462 7.99914 50.5887C7.93369 50.532 7.91223 50.4724 7.91223 50.424V14.1729C7.91223 14.1246 7.9337 14.065 7.99914 14.0083C8.06559 13.9507 8.16979 13.9055 8.29806 13.9055Z" fill="black" stroke="black"/>
<path d="M35.3596 24.9224H19.3501C19.2218 24.9224 19.1176 24.8772 19.0512 24.8196C18.9857 24.763 18.9643 24.7034 18.9643 24.6552C18.9643 24.6069 18.9857 24.5473 19.0512 24.4907C19.1176 24.4331 19.2218 24.3879 19.3501 24.3879H35.3596C35.4879 24.3879 35.5921 24.4331 35.6586 24.4907C35.724 24.5473 35.7454 24.6069 35.7454 24.6552C35.7454 24.7034 35.724 24.763 35.6586 24.8196C35.5921 24.8772 35.4879 24.9224 35.3596 24.9224Z" fill="black" stroke="black"/>
<path d="M43.2386 31.0986H19.3501C19.2219 31.0986 19.1177 31.0535 19.0512 30.9959C18.9858 30.9392 18.9643 30.8796 18.9643 30.8312C18.9643 30.7828 18.9858 30.7232 19.0512 30.6665C19.1177 30.6089 19.2219 30.5637 19.3501 30.5637H43.2386C43.3669 30.5637 43.4711 30.6089 43.5375 30.6665C43.603 30.7232 43.6245 30.7828 43.6245 30.8312C43.6245 30.8796 43.603 30.9392 43.5375 30.9959C43.4711 31.0535 43.3669 31.0986 43.2386 31.0986Z" fill="black" stroke="black"/>
<path d="M53.5778 20.3141L53.5781 20.3139C54.281 19.8554 55.1649 19.7278 56.0121 19.9382L56.0125 19.9383C56.9072 20.1613 57.6685 20.8174 57.9042 21.6707L57.9044 21.6714C58.1688 22.6339 57.8143 23.5813 57.0038 24.186L57.0038 24.1861C55.6048 25.2296 54.8264 26.7182 54.8264 28.2587C54.8264 28.3071 54.8479 28.3667 54.9133 28.4234C54.9798 28.4809 55.084 28.5261 55.2123 28.5261C55.3405 28.5261 55.4447 28.4809 55.5112 28.4234C55.5766 28.3667 55.5981 28.3071 55.5981 28.2587C55.5981 26.8147 56.3299 25.4662 57.5616 24.5476L57.5616 24.5475C58.5615 23.802 58.9628 22.6668 58.6635 21.5808L53.5778 20.3141ZM53.5778 20.3141C52.8796 20.7701 52.4469 21.4906 52.4469 22.301C52.4469 22.3493 52.4255 22.4089 52.36 22.4656M53.5778 20.3141L52.36 22.4656M56.2598 19.4338L56.2591 19.4336C55.1261 19.1496 53.9592 19.3377 53.0588 19.9253L56.2598 19.4338ZM56.2598 19.4338C57.4668 19.7346 58.3925 20.6007 58.6634 21.5805L56.2598 19.4338ZM52.36 22.4656C52.2936 22.5232 52.1894 22.5683 52.0611 22.5683M52.36 22.4656L52.0611 22.5683M52.0611 22.5683C51.9328 22.5683 51.8286 22.5232 51.7622 22.4656C51.6968 22.4089 51.6753 22.3493 51.6753 22.301C51.6753 21.3814 52.1598 20.5123 53.0587 19.9254L52.0611 22.5683Z" fill="black" stroke="black"/>
<path d="M55.6038 30.8312C55.6038 30.8998 55.5768 30.9606 55.5259 31.008C55.4748 31.0557 55.3885 31.0986 55.263 31.0986H55.1742C55.0459 31.0986 54.9418 31.0535 54.8753 30.9959C54.8099 30.9392 54.7884 30.8796 54.7884 30.8312C54.7884 30.7828 54.8099 30.7232 54.8753 30.6665C54.9418 30.6089 55.0459 30.5637 55.1742 30.5637C55.305 30.5637 55.426 30.6109 55.5075 30.6769C55.5887 30.7428 55.6038 30.8018 55.6038 30.8312Z" fill="black" stroke="black"/>
<path d="M27.5648 44.758H28.0648V44.258V38.9669V38.4669H27.5648H21.4563H20.9563V38.9669V44.258V44.758H21.4563H27.5648ZM20.5705 37.9321H28.4506C28.5789 37.9321 28.6831 37.9773 28.7495 38.0349C28.815 38.0916 28.8364 38.1512 28.8364 38.1995V45.0254C28.8364 45.0737 28.815 45.1333 28.7495 45.19C28.6831 45.2476 28.5789 45.2927 28.4506 45.2927H20.5705C20.4422 45.2927 20.338 45.2476 20.2715 45.19C20.2061 45.1333 20.1846 45.0737 20.1846 45.0254V38.1995C20.1846 38.1512 20.2061 38.0916 20.2715 38.0349C20.338 37.9773 20.4422 37.9321 20.5705 37.9321Z" fill="black" stroke="black"/>
<path d="M37.9663 38.4669H37.4663V38.9669V44.258V44.758H37.9663H44.0748H44.5748V44.258V38.9669V38.4669H44.0748H37.9663ZM36.6946 45.0254V38.1995C36.6946 38.1512 36.7161 38.0916 36.7815 38.0349C36.848 37.9773 36.9522 37.9321 37.0805 37.9321H44.9607C45.0889 37.9321 45.1932 37.9773 45.2596 38.0349C45.325 38.0916 45.3465 38.1512 45.3465 38.1995V45.0254C45.3465 45.0737 45.325 45.1333 45.2596 45.19C45.1932 45.2476 45.0889 45.2927 44.9607 45.2927H37.0805C36.9522 45.2927 36.848 45.2476 36.7815 45.19C36.7161 45.1333 36.6946 45.0737 36.6946 45.0254Z" fill="black" stroke="black"/>
<path d="M54.4764 38.4669H53.9764V38.9669V44.258V44.758H54.4764H60.5837H61.0837V44.258V38.9669V38.4669H60.5837H54.4764ZM53.2047 45.0254V38.1995C53.2047 38.1511 53.2262 38.0915 53.2916 38.0349C53.358 37.9773 53.4622 37.9321 53.5905 37.9321H61.4696C61.5979 37.9321 61.7021 37.9773 61.7685 38.0349C61.834 38.0916 61.8554 38.1512 61.8554 38.1995V45.0254C61.8554 45.0737 61.834 45.1333 61.7685 45.19C61.7021 45.2476 61.5979 45.2927 61.4696 45.2927H53.5905C53.4622 45.2927 53.358 45.2475 53.2916 45.19C53.2262 45.1333 53.2047 45.0737 53.2047 45.0254Z" fill="black" stroke="black"/>
</svg>
